<svg xmlns="http://www.w3.org/2000/svg" viewBox="0 0 1200 630">
  <defs>
    <linearGradient id="bg" x1="0" x2="1" y1="0" y2="1">
      <stop offset="0" stop-color="#fffffb"/>
      <stop offset="1" stop-color="#efe8d8"/>
    </linearGradient>
    <pattern id="grid" width="54" height="54" patternUnits="userSpaceOnUse">
      <path d="M54 0H0v54" fill="none" stroke="#d8ddd4" stroke-width="1"/>
    </pattern>
    <filter id="shadow" x="-20%" y="-20%" width="140%" height="140%">
      <feDropShadow dx="0" dy="18" stdDeviation="18" flood-color="#20211f" flood-opacity=".16"/>
    </filter>
  </defs>
  <rect width="1200" height="630" fill="url(#bg)"/>
  <rect width="1200" height="630" fill="url(#grid)" opacity=".7"/>
  <path d="M805 84c120 42 202 119 246 229 42 104 18 187-72 248-102 69-249 46-369-28-106-65-204-82-309-50-97 30-178-9-204-92-28-91 29-192 136-237 106-44 192-14 293-26 98-11 174-81 279-44Z" fill="#dfeadf" opacity=".8"/>
  <g filter="url(#shadow)">
    <rect x="644" y="116" width="374" height="358" rx="18" fill="#fffffb" stroke="#d8ddd4" stroke-width="3"/>
    <path d="M684 170h294M684 226h212M684 282h254M684 338h184" stroke="#d8ddd4" stroke-width="15" stroke-linecap="round"/>
    <circle cx="914" cy="392" r="30" fill="#246b4a"/>
    <path d="M901 392h26M914 379v26" stroke="#fffffb" stroke-width="8" stroke-linecap="round"/>
  </g>
  <g filter="url(#shadow)">
    <path d="M438 86c-72 0-130 58-130 130 0 97 130 237 130 237s130-140 130-237c0-72-58-130-130-130Z" fill="#246b4a"/>
    <circle cx="438" cy="216" r="51" fill="#fffffb"/>
    <circle cx="438" cy="216" r="24" fill="#d6a843"/>
  </g>
  <text x="90" y="162" fill="#20211f" font-family="Georgia, 'Times New Roman', serif" font-size="84" font-weight="700">My Map</text>
  <text x="94" y="235" fill="#4f5a51" font-family="'Hiragino Sans', 'Yu Gothic', sans-serif" font-size="34" font-weight="700">自分だけのご飯どころマップ</text>
  <text x="94" y="292" fill="#6e746c" font-family="'Hiragino Sans', 'Yu Gothic', sans-serif" font-size="27">スプレッドシートから、今行ける近くのお店を表示します。</text>
</svg>
